<svg xmlns="http://www.w3.org/2000/svg" viewBox="0 0 267.13 249.79"><defs><style>.cls-1{fill:#1d1d1b;}</style></defs><g id="Calque_2" data-name="Calque 2"><g id="Calque_2-2" data-name="Calque 2"><path class="cls-1" d="M266.45,41.69,147.72,247.31a5,5,0,0,1-8.62,0L.67,7.46A5,5,0,0,1,.85,2.2,4.91,4.91,0,0,1,5,0H137.1a5,5,0,0,1,5,5V29.25a5,5,0,0,0,5,5h35a5,5,0,0,1,4.31,7.46l-39.31,68.1a5,5,0,0,1-8.62,0L96.27,36.68A5,5,0,0,0,92,34.2l-29.65-.34A5,5,0,0,0,58,41.32l66.73,115.55,4.39,7.61,8.64,15a5,5,0,0,0,8.63,0l5.9-10.24,7.1-12.32L228.77,36.72a5,5,0,0,1,4.31-2.49h29.06A5,5,0,0,1,266.45,41.69Z"/></g></g></svg>