<?xml version="1.0" encoding="UTF-8"?><svg xmlns="http://www.w3.org/2000/svg" viewBox="0 0 439.75 262.87"><defs><style>.d{fill:#ec5f5b;}.e{fill:#fbbb32;}.f{fill:#fff;}.g,.h{fill:#e8e8e8;}.i{fill:#fbfafb;}.j{fill:#4faf44;}.k{stroke-width:.23px;}.k,.h,.l{stroke:#1d1d1b;stroke-linecap:round;stroke-linejoin:round;}.k,.l{fill:none;}.h,.l{stroke-width:.21px;}</style></defs><g id="a"/><g id="b"><g id="c"><path class="g" d="M5.03,0H434.71c2.78,0,5.03,2.26,5.03,5.03V21.34H0V5.03C0,2.26,2.26,0,5.03,0Z"/><circle class="d" cx="13.25" cy="10.67" r="2.38"/><circle class="e" cx="20.66" cy="10.67" r="2.38"/><circle class="j" cx="28.07" cy="10.67" r="2.38"/><rect class="i" x="395.83" y="5.29" width="12.49" height="10.75" rx="2.16" ry="2.16"/><rect class="i" x="142.46" y="4.78" width="154.83" height="10.75" rx="2.88" ry="2.88"/><polyline class="l" points="401.53 10.15 400.37 10.15 400.37 13.32 403.78 13.32 403.78 10.15 402.85 10.15"/><line class="l" x1="402.07" y1="8.02" x2="402.07" y2="11.61"/><rect class="i" x="410.54" y="5.29" width="12.49" height="10.75" rx="2.16" ry="2.16"/><rect class="i" x="40.4" y="5.29" width="9" height="10.75" rx="1.83" ry="1.83"/><rect class="l" x="414.99" y="9.83" width="2.63" height="2.64"/><polyline class="l" points="416.03 9.23 416.03 8.87 418.59 8.87 418.59 11.45 418.14 11.45"/><line class="h" x1="401.01" y1="9.33" x2="402.07" y2="8.02"/><line class="h" x1="403.16" y1="9.33" x2="402.1" y2="8.02"/><path class="f" d="M0,21.34H439.75v237.08c0,2.45-1.99,4.44-4.44,4.44H4.44c-2.45,0-4.44-1.99-4.44-4.44V21.34H0Z"/><polyline class="k" points="45.93 8.84 43.87 10.67 45.93 12.5"/><rect class="i" x="49.95" y="5.29" width="9" height="10.75" rx="1.83" ry="1.83"/><polyline class="k" points="53.42 8.84 55.48 10.67 53.42 12.5"/></g></g></svg>